<svg xmlns="http://www.w3.org/2000/svg" viewBox="0 0 327.03 222.7"><defs><style>.cls-1{fill:#ff305c;}.cls-2{fill:#fff;}.cls-3{fill:#00c263;}.cls-4{fill:#ffc400;}.cls-5{fill:#427bff;}</style></defs><title>Asset 5</title><g id="Layer_2" data-name="Layer 2"><g id="Layer_1-2" data-name="Layer 1"><path class="cls-1" d="M217.1,70.71a1.6,1.6,0,0,1-.76-.2l-49.47-29a1.51,1.51,0,0,1-.21-2.44L210.34,1.86a1.5,1.5,0,0,1,1-.36,1.55,1.55,0,0,1,.56.11,1.5,1.5,0,0,1,.93,1.26L214,16c3.43-.3,7-.45,10.55-.45a153.31,153.31,0,0,1,62.9,14.13c19.91,9.35,33.42,21.57,38,34.41a1.5,1.5,0,0,1-.87,1.91,1.47,1.47,0,0,1-.54.1,1.51,1.51,0,0,1-1.39-.94c-5.44-13.36-25.51-21.66-52.38-21.66a150.57,150.57,0,0,0-53,10l1.37,15.62a1.51,1.51,0,0,1-.7,1.4A1.43,1.43,0,0,1,217.1,70.71Z"/><path class="cls-2" d="M211.32,3l1.27,14.59c3.91-.39,7.89-.58,11.91-.58,42.71,0,90.14,21.46,99.53,47.55-6.09-15-27.82-22.6-53.77-22.6a151.55,151.55,0,0,0-54.62,10.52l1.46,16.73-49.47-29L211.32,3m0-3a3,3,0,0,0-1.95.72L165.69,37.89a3,3,0,0,0-1.05,2.55,3,3,0,0,0,1.47,2.32l49.47,29a3,3,0,0,0,3.12,0,3,3,0,0,0,1.39-2.8l-1.27-14.49A148.88,148.88,0,0,1,270.26,45c26.25,0,45.78,7.94,51,20.73A3,3,0,0,0,324,67.56a3.07,3.07,0,0,0,1.07-.2,3,3,0,0,0,1.75-3.82C322.1,50.33,308.31,37.8,288,28.28A154.91,154.91,0,0,0,224.5,14c-3.1,0-6.18.11-9.18.33l-1-11.6A3,3,0,0,0,212.45.22,3,3,0,0,0,211.32,0Z"/><path class="cls-3" d="M213,221.2a1.48,1.48,0,0,1-.8-.23l-48.54-30.56a1.49,1.49,0,0,1-.13-2.44l44.82-35.8a1.47,1.47,0,0,1,.93-.33,1.68,1.68,0,0,1,.62.13,1.5,1.5,0,0,1,.88,1.29l.62,11.1a68.39,68.39,0,0,1,14.91-2c9.7,0,18.67,3.21,35.53,12.73,14.53,8.2,23.67,11.39,32.61,11.39,6.38,0,12.71-1.55,21.48-3.69l6.36-1.54a2,2,0,0,1,.34,0,1.5,1.5,0,0,1,1.4,1,1.48,1.48,0,0,1-.69,1.85c-2.32,1.25-4.49,2.44-6.54,3.56-13.88,7.6-22.25,12.18-34.61,12.18-5.92,0-12.74-1.06-21.47-3.35-9.8-2.58-16.76-3.72-22.58-3.72-8.71,0-15.51,2.57-24.73,7.34l1.09,19.54a1.48,1.48,0,0,1-.74,1.37A1.45,1.45,0,0,1,213,221.2Z"/><path class="cls-2" d="M209.26,153.34l.73,12.87c6.31-1.44,11.41-2.31,16.3-2.31,9.71,0,18.63,3.42,34.79,12.54C276.33,185,285.44,188,294.43,188c8.05,0,16-2.39,28.18-5.27-17.92,9.64-26.68,15.56-40.44,15.56-5.79,0-12.47-1-21.09-3.31-9.63-2.52-16.77-3.76-23-3.76-9.15,0-16.24,2.7-26.29,8L213,219.7l-48.54-30.56,44.82-35.8m113.35,29.41h0M209.26,150.34a3,3,0,0,0-1.87.66l-44.82,35.8a3,3,0,0,0,.27,4.88l48.55,30.56a2.94,2.94,0,0,0,1.59.46,3.08,3.08,0,0,0,1.53-.41,3,3,0,0,0,1.47-2.75l-1-18.57c8.58-4.38,15-6.73,23.18-6.73,5.69,0,12.53,1.13,22.2,3.67,8.86,2.32,15.8,3.4,21.85,3.4,12.74,0,21.24-4.65,35.33-12.36,2-1.11,4.17-2.28,6.47-3.52a3,3,0,0,0-1.14-5.67h-.22l-.3,0a2.11,2.11,0,0,0-.45.08l-6.31,1.52c-8.66,2.12-14.92,3.65-21.12,3.65-8.66,0-17.59-3.14-31.88-11.2-17.11-9.66-26.27-12.92-36.26-12.92a65.31,65.31,0,0,0-13.51,1.63l-.52-9.36a3,3,0,0,0-1.77-2.57,3.09,3.09,0,0,0-1.23-.26Z"/><path class="cls-4" d="M48.15,159.19a1.52,1.52,0,0,1-.93-.32L2.07,123.49a1.52,1.52,0,0,1-.57-1.26A1.51,1.51,0,0,1,2.19,121L50.45,90a1.5,1.5,0,0,1,.81-.24A1.53,1.53,0,0,1,52,90a1.49,1.49,0,0,1,.75,1.37l-.62,13.3,101.33,17.1a1.5,1.5,0,0,1,0,3L50.38,142.14l-.73,15.62a1.53,1.53,0,0,1-.88,1.3A1.5,1.5,0,0,1,48.15,159.19Z"/><path class="cls-2" d="M51.26,91.3h0m0,0-.68,14.62,102.64,17.33L48.94,140.86l-.79,16.83L3,122.31l48.26-31m0-3h0a3,3,0,0,0-1.66.5l-48.22,31a3,3,0,0,0-.23,4.89L46.3,160.05a2.93,2.93,0,0,0,1.85.64,3.06,3.06,0,0,0,1.25-.27,3,3,0,0,0,1.74-2.59l.68-14.42,101.9-17.2a3,3,0,0,0,0-5.92l-100-16.88.55-11.84a2.44,2.44,0,0,0,0-.27,3,3,0,0,0-3-3Zm0,6h0Z"/><path class="cls-5" d="M263.62,146.66a1.5,1.5,0,0,1-1.41-2l5.21-14.59c-3.06-2.58-8.07-3.84-15.27-3.84a149.37,149.37,0,0,0-19.91,1.89c-3.55.5-6.91,1-9.79,1.21-2,.16-4,.24-5.95.24-9.93,0-33.79-2.25-40.66-23a1.5,1.5,0,0,1,.73-1.8,1.45,1.45,0,0,1,.7-.17,1.51,1.51,0,0,1,1.19.59c4.6,6,11,9.11,19.16,9.11,6.11,0,13.08-1.78,20.16-5.15,2.5-1.21,5.32-2.76,8.31-4.41C238,98.16,252.79,90,269.5,90a48.12,48.12,0,0,1,11.7,1.43l3.36-9.4a1.49,1.49,0,0,1,1.21-1l.2,0a1.5,1.5,0,0,1,1.23.64l32.86,47a1.5,1.5,0,0,1-.83,2.3L264,146.6A1.51,1.51,0,0,1,263.62,146.66Z"/><path class="cls-2" d="M286,82.56l32.86,47-55.21,15.57,5.54-15.53c-3.69-3.74-10-4.91-17-4.91-10.15,0-21.89,2.43-29.84,3.1-1.91.16-3.86.24-5.82.24-16.53,0-33.84-5.7-39.23-22,5.29,7,12.55,9.7,20.35,9.7,6.84,0,14.09-2.1,20.8-5.3,12.16-5.88,30.44-18.92,51.08-18.92a46.36,46.36,0,0,1,12.65,1.73L286,82.56m0-3-.4,0a3,3,0,0,0-2.42,2l-2.91,8.14a50,50,0,0,0-10.74-1.16c-17.1,0-32.72,8.58-44.13,14.85-3,1.63-5.78,3.17-8.25,4.37-6.86,3.27-13.61,5-19.5,5-7.62,0-13.67-2.87-18-8.52a3,3,0,0,0-2.39-1.18,3,3,0,0,0-1.4.34,3,3,0,0,0-1.45,3.6c5.05,15.29,20.39,24.07,42.08,24.07,2,0,4-.09,6.06-.25,2.93-.24,6.31-.72,9.89-1.22,6.28-.87,13.39-1.87,19.7-1.87s10.65.94,13.48,2.87l-4.84,13.56a3,3,0,0,0,2.83,4,2.84,2.84,0,0,0,.81-.12l55.21-15.57a3,3,0,0,0,2-1.88,3,3,0,0,0-.36-2.72l-32.86-47A3,3,0,0,0,286,79.56Z"/></g></g></svg>