<svg xmlns="http://www.w3.org/2000/svg" viewBox="0 0 162.4 72.21"><defs><style>.cls-1{fill:#ff305c;}.cls-2{fill:#fff;}</style></defs><title>Asset 8</title><g id="Layer_2" data-name="Layer 2"><g id="Layer_1-2" data-name="Layer 1"><path class="cls-1" d="M52.47,70.71a1.6,1.6,0,0,1-.76-.2l-49.47-29A1.51,1.51,0,0,1,2,39L45.71,1.86a1.5,1.5,0,0,1,1-.36,1.55,1.55,0,0,1,.56.11,1.5,1.5,0,0,1,.93,1.26L49.32,16c3.43-.3,7-.45,10.55-.45a153.31,153.31,0,0,1,62.9,14.13c19.91,9.35,33.42,21.57,38,34.41a1.5,1.5,0,0,1-.87,1.91,1.47,1.47,0,0,1-.54.1,1.51,1.51,0,0,1-1.39-.94c-5.44-13.36-25.51-21.66-52.38-21.66a150.57,150.57,0,0,0-53,10L54,69.08a1.51,1.51,0,0,1-.7,1.4A1.43,1.43,0,0,1,52.47,70.71Z"/><path class="cls-2" d="M46.69,3,48,17.59c3.91-.39,7.89-.58,11.91-.58C102.58,17,150,38.47,159.4,64.56c-6.09-15-27.82-22.6-53.77-22.6A151.55,151.55,0,0,0,51,52.48l1.46,16.73L3,40.18,46.69,3m0-3a3,3,0,0,0-1.95.72L1.06,37.89a3,3,0,0,0-1,2.55,3,3,0,0,0,1.47,2.32L51,71.8a3,3,0,0,0,3.12,0A3,3,0,0,0,55.46,69L54.19,54.46A148.88,148.88,0,0,1,105.63,45c26.25,0,45.78,7.94,51,20.73a3,3,0,0,0,2.78,1.87,3.07,3.07,0,0,0,1.07-.2,3,3,0,0,0,1.75-3.82c-4.75-13.21-18.54-25.74-38.82-35.26A154.83,154.83,0,0,0,59.87,14c-3.1,0-6.18.11-9.18.33l-1-11.6A3,3,0,0,0,47.82.22,3,3,0,0,0,46.69,0Z"/></g></g></svg>